M48
;DRILL FILE
;Generated by LibrePCB 0.1
;Creation Date: 2016-06-12T03:42:08
FMAT,2
METRIC,TZ
T1C0.000100
%
G90
G05
M71
T1
X-2.540000Y24.130000
X-2.540000Y19.050000
X-5.080000Y24.130000
X-5.080000Y19.050000
X-7.620000Y19.050000
X-7.620000Y24.130000
X-10.160000Y22.860000
X-11.430000Y24.130000
X-12.700000Y22.860000
X-10.160000Y20.320000
X-11.430000Y19.050000
X-12.700000Y20.320000
X-15.240000Y21.590000
X-16.510000Y24.130000
X-16.510000Y19.050000
X-17.780000Y21.590000
X-20.320000Y22.860000
X-21.590000Y24.130000
X-22.860000Y22.860000
X-20.320000Y20.320000
X-22.860000Y20.320000
X-21.590000Y19.050000
X-22.860000Y8.890000
X-20.320000Y8.890000
X-22.860000Y15.240000
X-20.320000Y15.240000
X-21.590000Y13.970000
X-21.590000Y16.510000
X-20.320000Y-22.860000
X-8.890000Y-20.320000
X-7.620000Y-21.590000
X-8.890000Y-22.860000
X-7.620000Y-24.130000
X-8.890000Y-25.400000
X-10.160000Y-25.400000
X-10.160000Y-20.320000
X-19.050000Y-22.860000
X-17.780000Y-21.590000
X-19.050000Y-20.320000
X-20.320000Y-25.400000
X-20.320000Y-20.320000
X-12.700000Y-24.130000
X-12.700000Y-21.590000
X-13.970000Y-20.320000
X-13.970000Y-25.400000
X-15.240000Y-24.130000
X-15.240000Y-21.590000
X-2.540000Y-15.240000
X0.000000Y-17.780000
X0.000000Y-15.240000
X0.000000Y-12.700000
X-2.540000Y-12.700000
X-2.540000Y-17.780000
X-5.080000Y-17.780000
X-6.350000Y-12.700000
X-5.080000Y-13.970000
X-6.350000Y-15.240000
X-7.620000Y-17.780000
X-7.620000Y-12.700000
X-11.430000Y-12.700000
X-10.160000Y-13.970000
X-11.430000Y-15.240000
X-10.160000Y-16.510000
X-11.430000Y-17.780000
X-12.700000Y-17.780000
X-12.700000Y-12.700000
X-15.240000Y-12.700000
X-15.240000Y-17.780000
X-17.780000Y-17.780000
X-20.320000Y-12.700000
X-20.320000Y-17.780000
T0
M30
